<?xml version="1.0" encoding="UTF-8"?>
<svg version="1.1" xmlns="http://www.w3.org/2000/svg" width="612" height="408">
<path d="M0 0 C39.6 0 79.2 0 120 0 C120.04125 14.581875 120.0825 29.16375 120.125 44.1875 C120.14320801 48.78840576 120.16141602 53.38931152 120.18017578 58.12963867 C120.18920898 63.75646973 120.18920898 63.75646973 120.19088745 66.39228821 C120.19395463 68.22957834 120.20098051 70.06686449 120.21115112 71.90412903 C120.22580102 74.69030735 120.22781163 77.47624007 120.22705078 80.26245117 C120.234247 81.07824489 120.24144321 81.8940386 120.2488575 82.73455334 C120.2272943 88.63747267 119.60171044 92.22968847 115.625 96.625 C109.68421053 102 109.68421053 102 107 102 C107 102.66 107 103.32 107 104 C104.15041846 106.05434948 101.22838354 107.86804506 98.1875 109.625 C95.87705879 110.81316542 95.87705879 110.81316542 95 113 C93.35001669 114.02729395 91.68017951 115.02287433 90 116 C88.29829102 117.18823913 86.61143928 118.39794948 84.9375 119.625 C83.98746094 120.31980469 83.03742188 121.01460938 82.05859375 121.73046875 C79.93664021 123.30499622 77.82480069 124.88786273 75.72265625 126.48828125 C75.18455322 126.89675293 74.6464502 127.30522461 74.09204102 127.72607422 C72.56882576 128.88512867 71.04993152 130.04985517 69.53125 131.21484375 C64.97884575 134.4254128 60.40769265 134.88693048 55 134 C51.68253592 132.40597027 48.90449843 130.24481659 46 128 C44.12709491 126.64293741 42.25202641 125.28885644 40.375 123.9375 C39.45847656 123.26332031 38.54195313 122.58914062 37.59765625 121.89453125 C35.3608913 120.26320644 33.09629264 118.68905193 30.8125 117.125 C29.4203125 116.073125 29.4203125 116.073125 28 115 C28 114.34 28 113.68 28 113 C27.45730469 112.92007813 26.91460937 112.84015625 26.35546875 112.7578125 C23.14271339 111.72418971 20.98144574 109.9334026 18.3125 107.875 C17.78793213 107.47192627 17.26336426 107.06885254 16.72290039 106.65356445 C15.14548678 105.43974504 13.57269711 104.2199242 12 103 C10.67355469 102.00419922 10.67355469 102.00419922 9.3203125 100.98828125 C8.53398437 100.39402344 7.74765625 99.79976563 6.9375 99.1875 C6.24527344 98.66542969 5.55304688 98.14335937 4.83984375 97.60546875 C1.27425506 94.49409518 0.08510941 92.93745264 -0.36076355 88.02630615 C-0.36948489 86.38440879 -0.36148715 84.7423733 -0.34057617 83.10058594 C-0.34111858 81.73198111 -0.34111858 81.73198111 -0.34167194 80.33572769 C-0.33943444 77.38505287 -0.31659628 74.434948 -0.29296875 71.484375 C-0.2885574 69.66162388 -0.28549717 67.83886896 -0.28381348 66.01611328 C-0.26809066 59.2606842 -0.22620697 52.50533649 -0.1875 45.75 C-0.125625 30.6525 -0.06375 15.555 0 0 Z M14 15 C14 38.1 14 61.2 14 85 C14.66 85 15.32 85 16 85 C16.24234375 85.59554687 16.4846875 86.19109375 16.734375 86.8046875 C18.25102799 89.4354251 19.72056414 90.45825253 22.25 92.125 C25.43711128 94.26371941 28.60005845 96.41718982 31.703125 98.67578125 C32.33186523 99.13259277 32.96060547 99.5894043 33.60839844 100.06005859 C34.85848191 100.97035428 36.10657128 101.88339544 37.35253906 102.79931641 C40.3677393 105.21272165 40.3677393 105.21272165 44 106 C44 106.66 44 107.32 44 108 C45.77793767 109.45704519 45.77793767 109.45704519 48.0625 110.875 C49.28453125 111.66390625 49.28453125 111.66390625 50.53125 112.46875 C53.64463953 114.39983971 56.79427284 116.22661902 60 118 C67.41104802 113.46292139 74.39705255 108.54644763 81.30664062 103.28271484 C84.51841228 100.84980708 87.75768797 98.45447279 91 96.0625 C91.63518555 95.58973633 92.27037109 95.11697266 92.92480469 94.62988281 C97.56147368 91.21378158 97.56147368 91.21378158 100.1875 89.93359375 C102.748468 88.61447445 104.23834928 87.29170492 106 85 C106.48263789 81.72599522 106.48263789 81.72599522 106.25 78.25 C106.21390625 77.07953125 106.1778125 75.9090625 106.140625 74.703125 C106.09421875 73.81109375 106.0478125 72.9190625 106 72 C102.33360752 71.88271874 98.6677048 71.81239109 95 71.75 C93.97003906 71.71648437 92.94007813 71.68296875 91.87890625 71.6484375 C85.41881553 71.56614335 80.26474226 71.995888 75 76 C71.65812788 79.86216359 71.47761669 83.8825875 71.3125 88.8125 C71.27833984 89.50537109 71.24417969 90.19824219 71.20898438 90.91210938 C71.12713656 92.60752849 71.06187635 94.30373458 71 96 C60.11488764 96.40607673 51.10441804 96.57250432 41 92 C40.34 92 39.68 92 39 92 C39 91.34 39 90.68 39 90 C37.97267747 89.12366724 36.90132698 88.29862789 35.8125 87.5 C30.5464385 83.16324347 27.21187 76.71375978 26 70 C25.17253118 59.502967 26.0059896 51.50375313 31 42 C31.30164063 41.27296875 31.60328125 40.5459375 31.9140625 39.796875 C33.29654905 37.50930733 34.57063045 37.04435997 37 36 C38.95241449 34.73132581 40.88125146 33.43323534 42.8046875 32.12109375 C47.12916277 29.91268734 51.9493697 29.87178436 56.72998047 29.79467773 C58.38101273 29.7647599 58.38101273 29.7647599 60.06539917 29.73423767 C61.82353439 29.70916893 61.82353439 29.70916893 63.6171875 29.68359375 C64.82948029 29.66281265 66.04177307 29.64203156 67.290802 29.62062073 C71.1521453 29.55539018 75.01355491 29.49636349 78.875 29.4375 C81.49740261 29.39428959 84.11979859 29.3506745 86.7421875 29.30664062 C93.16139087 29.19973593 99.58066076 29.09839401 106 29 C106 24.38 106 19.76 106 15 C75.64 15 45.28 15 14 15 Z M41.12890625 52.9453125 C38.35311744 57.99744024 38.69334488 63.29945795 39.6875 68.8125 C42.32309177 75.21322288 45.902354 78.11164137 52 81 C54.64870544 81.14118516 54.64870544 81.14118516 57 81 C57.24234375 80.33613281 57.4846875 79.67226562 57.734375 78.98828125 C61.08334939 70.16502181 65.19970594 64.27663755 73.796875 59.92578125 C80.03727656 57.20085007 86.3476693 57.32853603 93.0625 57.25 C94.93325195 57.20552734 94.93325195 57.20552734 96.84179688 57.16015625 C99.89419156 57.08998626 102.94709702 57.04266811 106 57 C106 52.71 106 48.42 106 44 C98.74092557 43.90083232 91.48224894 43.82838845 84.22265625 43.78027344 C81.75513842 43.76020705 79.28766785 43.73294756 76.8203125 43.69824219 C73.26550607 43.64950694 69.71133056 43.62698061 66.15625 43.609375 C65.06010376 43.58872986 63.96395752 43.56808472 62.83459473 43.54681396 C53.83048558 43.54419943 46.8954606 45.62320262 41.12890625 52.9453125 Z " fill="#EDF0F2" transform="translate(227,103)"/>
<path d="M0 0 C4.00162625 -0.1244644 8.00248902 -0.21473834 12.00561523 -0.2746582 C13.36453907 -0.29965918 14.72333039 -0.33367278 16.08178711 -0.37719727 C28.81370643 -0.7746314 28.81370643 -0.7746314 33.28125 2.28125 C37.79609512 6.79609512 39.64483185 10.55328608 40.5625 16.875 C40.2950258 22.05988444 37.81908912 26.72769029 35 31 C34.01 31.66 33.02 32.32 32 33 C32.66 34.093125 33.32 35.18625 34 36.3125 C35.58464929 38.93707538 36 39.8256378 36 43 C36.66 43 37.32 43 38 43 C41 48.75 41 48.75 41 51 C36.49953169 51.66999453 32.4712438 51.9536569 28 51 C24.21973069 47.28880538 21.87799956 42.73155419 20.26171875 37.703125 C19.84535156 37.14109375 19.42898437 36.5790625 19 36 C15.535 35.505 15.535 35.505 12 35 C12 40.28 12 45.56 12 51 C3.50390625 51.09765625 3.50390625 51.09765625 1 51 C0 50 0 50 -0.12025452 47.98155212 C-0.11803391 47.09552811 -0.11581329 46.20950409 -0.11352539 45.29663086 C-0.11344986 44.29566879 -0.11337433 43.29470673 -0.11329651 42.26341248 C-0.10813522 41.1748848 -0.10297394 40.08635712 -0.09765625 38.96484375 C-0.0962413 37.85645645 -0.09482635 36.74806915 -0.09336853 35.60609436 C-0.08775033 32.04986931 -0.07519475 28.49370617 -0.0625 24.9375 C-0.05748734 22.53320403 -0.05292403 20.12890708 -0.04882812 17.72460938 C-0.03777499 11.81638496 -0.02101917 5.9081969 0 0 Z M12 11 C12 15.29 12 19.58 12 24 C19.75882336 24.386279 19.75882336 24.386279 27 22 C27.85387105 18.69432511 27.85387105 18.69432511 28 15 C26.48109951 12.64689203 26.48109951 12.64689203 24 11 C20.95559865 10.51804725 20.95559865 10.51804725 17.75 10.75 C15.8525 10.8325 13.955 10.915 12 11 Z " fill="#E0E5E7" transform="translate(219,255)"/>
<path d="M0 0 C9.24666817 -0.2785141 14.89525481 1.57740671 21.703125 7.9453125 C24.36273584 10.89216131 25.47252991 13.3362672 26.65625 17.109375 C27.15125 18.594375 27.15125 18.594375 27.65625 20.109375 C28.36694635 29.21175522 27.56767655 36.65660499 22.53125 44.359375 C15.51677934 51.06886867 9.47161704 52.86594032 -0.09350586 52.77563477 C-7.96701116 52.37623506 -12.38902359 49.21961332 -17.71875 43.609375 C-23.27679873 35.05853081 -23.52686439 27.058826 -22.34375 17.109375 C-20.30034909 9.70574851 -14.78656239 4.96355741 -8.34375 1.109375 C-5.42247177 0.17705216 -3.0304899 0.14142286 0 0 Z M-7.59375 14.859375 C-10.78489465 18.96227526 -11.56309706 22.56933484 -11.15625 27.671875 C-10.62914011 31.38674472 -9.74378845 34.13332733 -7.34375 37.109375 C-6.68375 37.109375 -6.02375 37.109375 -5.34375 37.109375 C-5.01375 38.099375 -4.68375 39.089375 -4.34375 40.109375 C2.2552105 41.30607647 2.2552105 41.30607647 8.59375 39.796875 C9.274375 39.24 9.955 38.683125 10.65625 38.109375 C11.64625 37.449375 12.63625 36.789375 13.65625 36.109375 C15.84586415 32.32968392 16.66878046 28.83614151 16.59375 24.484375 C15.2446665 19.62767442 13.30782936 16.36979083 9.28125 13.296875 C3.00601662 10.45807895 -2.04142125 10.54089708 -7.59375 14.859375 Z " fill="#E6E8EB" transform="translate(386.34375,253.890625)"/>
<path d="M0 0 C6.6515625 -0.1546875 6.6515625 -0.1546875 13.4375 -0.3125 C14.81736084 -0.35802002 16.19722168 -0.40354004 17.61889648 -0.45043945 C25.23078144 -0.5357313 30.96470213 0.09029955 37 5 C43.37253064 11.95435799 44.47999097 19.27130995 44.3046875 28.5234375 C43.60292493 36.53072839 40.36366262 41.29715058 34.390625 46.4921875 C22.91974837 53.72708681 14.75924285 51 0 51 C0 34.17 0 17.34 0 0 Z M11 11 C11 20.24 11 29.48 11 39 C24.23067951 40.5595275 24.23067951 40.5595275 29.3125 35.125 C32.6375141 30.45155449 33.74052456 26.77817757 33 21 C31.67975104 17.18259442 29.71781576 14.55630722 26.5 12.0625 C21.69585863 10.41903679 21.69585863 10.41903679 11 11 Z " fill="#E7EAEC" transform="translate(312,255)"/>
<path d="M0 0 C11.55 0 23.1 0 35 0 C35 3.3 35 6.6 35 10 C34 11 34 11 31.77514648 11.11352539 C30.81680908 11.10828857 29.85847168 11.10305176 28.87109375 11.09765625 C27.31938477 11.09282227 27.31938477 11.09282227 25.73632812 11.08789062 C24.64771484 11.07951172 23.55910156 11.07113281 22.4375 11.0625 C20.7987793 11.05573242 20.7987793 11.05573242 19.12695312 11.04882812 C16.41791505 11.03699826 13.70898401 11.02051543 11 11 C11.33 13.64 11.66 16.28 12 19 C18.27 19 24.54 19 31 19 C31 22.96 31 26.92 31 31 C24.4 31 17.8 31 11 31 C11 33.64 11 36.28 11 39 C18.92 39 26.84 39 35 39 C35 42.96 35 46.92 35 51 C23.45 51 11.9 51 0 51 C0 34.17 0 17.34 0 0 Z " fill="#E6E9EB" transform="translate(268,255)"/>
<path d="M0 0 C2.54251517 2.54251517 3.89776498 3.95209101 4.25 7.5625 C2.29374008 11.37720684 -1.1492281 12.42986749 -5 14 C-5.474375 13.21625 -5.94875 12.4325 -6.4375 11.625 C-9.90444836 8.07349193 -13.08824614 7.20501233 -18 7 C-22.01516167 8.21212428 -23.62037138 9.54854975 -26.3125 12.75 C-28.1835378 16.3534802 -28.85268925 18.9489544 -29 23 C-28.13545562 25.70465742 -28.13545562 25.70465742 -27 28 C-27 28.99 -27 29.98 -27 31 C-25.68 31.66 -24.36 32.32 -23 33 C-23 33.66 -23 34.32 -23 35 C-14.11438329 35.36045047 -14.11438329 35.36045047 -6.6875 30.875 C-6.130625 30.25625 -5.57375 29.6375 -5 29 C-1.59687262 30.05875074 1.01353231 31.00902154 4 33 C3.67 34.98 3.34 36.96 3 39 C2.01 39.33 1.02 39.66 0 40 C-0.33 40.99 -0.66 41.98 -1 43 C-6.15310934 46.64294362 -10.12024992 47.71925737 -16.375 47.625 C-17.49600098 47.61460693 -17.49600098 47.61460693 -18.63964844 47.60400391 C-25.09833623 47.34953667 -29.34734119 45.58964312 -34 41 C-34.51949219 40.50886719 -35.03898438 40.01773438 -35.57421875 39.51171875 C-41.37134238 33.34916039 -41.34421864 26.08007292 -41.1796875 18.08203125 C-40.7379979 10.5060945 -38.0272719 5.5060597 -33 0 C-23.83556905 -7.44610015 -9.46332227 -6.9056676 0 0 Z " fill="#E3E7EA" transform="translate(208,259)"/>
<path d="M0 0 C1.20946289 0.0028299 2.41892578 0.00565979 3.66503906 0.00857544 C7.50596248 0.01971854 11.34664775 0.04481267 15.1875 0.0703125 C17.80077787 0.08034987 20.41405941 0.0894744 23.02734375 0.09765625 C29.41414296 0.11963867 35.80080446 0.15305775 42.1875 0.1953125 C42.1875 0.5253125 42.1875 0.8553125 42.1875 1.1953125 C41.58330231 1.20561996 40.97910461 1.21592743 40.3565979 1.22654724 C34.02914097 1.33530331 27.70180681 1.44983855 21.37451172 1.56762695 C19.01776719 1.61075586 16.66099583 1.65244496 14.30419922 1.69262695 C10.9032383 1.75086751 7.50240972 1.81440284 4.1015625 1.87890625 C2.53844833 1.90397499 2.53844833 1.90397499 0.9437561 1.92955017 C-4.67487561 2.0415834 -10.17539981 2.36476441 -15.75088501 3.08534241 C-17.8125 3.1953125 -17.8125 3.1953125 -20.8125 2.1953125 C-13.80836172 0.03270997 -7.29668352 -0.0648327 0 0 Z " fill="#ACB9C3" transform="translate(290.8125,131.8046875)"/>
<path d="M0 0 C0.66 0 1.32 0 2 0 C2.02688151 1.64574566 2.04634123 3.29161413 2.0625 4.9375 C2.07410156 5.85402344 2.08570313 6.77054687 2.09765625 7.71484375 C2 10 2 10 1 11 C-0.70772358 11.08713831 -2.41898649 11.10700007 -4.12890625 11.09765625 C-5.68061523 11.09282227 -5.68061523 11.09282227 -7.26367188 11.08789062 C-8.35228516 11.07951172 -9.44089844 11.07113281 -10.5625 11.0625 C-12.2012207 11.05573242 -12.2012207 11.05573242 -13.87304688 11.04882812 C-16.58208495 11.03699826 -19.29101599 11.02051543 -22 11 C-22 10.67 -22 10.34 -22 10 C-14.74 9.67 -7.48 9.34 0 9 C0 6.03 0 3.06 0 0 Z " fill="#717B85" transform="translate(301,255)"/>
<path d="M0 0 C0.66 0.33 1.32 0.66 2 1 C1.52949219 1.44730469 1.05898438 1.89460938 0.57421875 2.35546875 C-2.89122883 5.72046857 -5.57667077 8.79105976 -8 13 C-8.66 13 -9.32 13 -10 13 C-10.33 13.66 -10.66 14.32 -11 15 C-9.95276499 8.19297243 -5.15914922 3.98661531 0 0 Z " fill="#AAB5BD" transform="translate(376,256)"/>
<path d="M0 0 C0.99 0.66 1.98 1.32 3 2 C2.8125 4.375 2.8125 4.375 2 7 C-0.5625 8.3125 -0.5625 8.3125 -3 9 C-2.67 8.01 -2.34 7.02 -2 6 C-1.01 6 -0.02 6 1 6 C0.67 4.02 0.34 2.04 0 0 Z " fill="#8B9BA6" transform="translate(209,262)"/>
<path d="M0 0 C0 0.99 0 1.98 0 3 C-1.75 4.75 -1.75 4.75 -4 6 C-6.25 5.6875 -6.25 5.6875 -8 5 C-2.25 0 -2.25 0 0 0 Z " fill="#B2BFC6" transform="translate(328,192)"/>
<path d="M0 0 C0.625 1.8125 0.625 1.8125 1 4 C0.01 5.485 0.01 5.485 -1 7 C-1.66 7 -2.32 7 -3 7 C-3.33 7.66 -3.66 8.32 -4 9 C-3.35455571 5.51460083 -1.89865603 2.97180943 0 0 Z " fill="#8E97A8" transform="translate(369,262)"/>
</svg>
