<svg version="1.1" id="Layer_1" xmlns="http://www.w3.org/2000/svg" xmlns:xlink="http://www.w3.org/1999/xlink" x="0px" y="0px"
	 width="100%" viewBox="0 0 612 408" enable-background="new 0 0 612 408" xml:space="preserve">
<path fill="#000000" opacity="1.000000" stroke="none" 
	d="
M326.000000,409.000000 
	C217.359818,409.000000 109.219650,409.000000 1.039738,409.000000 
	C1.039738,273.059814 1.039738,137.119598 1.039738,1.089700 
	C204.890198,1.089700 408.780457,1.089700 612.835327,1.089700 
	C612.835327,136.999847 612.835327,272.999908 612.835327,409.000000 
	C517.452881,409.000000 421.976440,409.000000 326.000000,409.000000 
M246.500824,104.625420 
	C240.570221,104.625420 234.639618,104.625420 228.401245,104.625420 
	C228.295563,105.284073 228.060272,106.068054 228.059784,106.852180 
	C228.042587,134.676620 227.980438,162.501373 228.112518,190.325195 
	C228.135529,195.170425 230.602325,199.074966 234.593506,201.970779 
	C248.733810,212.230362 263.040405,222.274704 276.907837,232.891891 
	C287.391541,240.918457 290.583801,238.455048 298.054291,233.297958 
	C312.686462,223.196960 326.719360,212.231155 341.094879,201.753098 
	C345.768341,198.346725 347.818787,193.956894 347.806763,188.270416 
	C347.751495,162.112213 347.779327,135.953842 347.777374,109.795540 
	C347.777252,108.029076 347.777374,106.262611 347.777374,104.627777 
	C313.857056,104.627777 280.678864,104.627777 246.500824,104.625420 
M369.286957,265.783936 
	C365.559662,271.040649 364.915741,277.006256 365.043213,283.237427 
	C365.364960,298.964813 380.985748,310.365021 396.206024,306.454681 
	C413.195557,302.089813 420.148041,280.808167 410.312897,265.882446 
	C400.908203,251.609970 378.955750,251.485153 369.286957,265.783936 
M313.273285,301.201172 
	C313.346954,302.781677 313.420593,304.362152 313.506775,306.211395 
	C321.022461,306.211395 328.254700,306.939972 335.245056,305.953918 
	C339.864960,305.302246 344.564148,302.795135 348.474121,300.046509 
	C355.908478,294.820282 356.745880,286.742737 356.487366,278.299194 
	C356.183563,268.376678 349.442413,258.630402 339.738739,257.070831 
	C331.196228,255.697906 322.378448,256.038086 313.272552,255.602142 
	C313.272552,271.089355 313.272552,285.674652 313.273285,301.201172 
M225.600525,255.997864 
	C224.146667,255.997864 222.692795,255.997864 221.241226,255.997864 
	C221.241226,272.997589 221.241226,289.538269 221.241226,305.878662 
	C225.025162,305.878662 228.438461,305.878662 231.998672,305.878662 
	C231.998672,300.558838 231.998672,295.543579 231.998672,290.952118 
	C237.177292,288.968536 239.700455,290.977081 241.637833,294.966034 
	C243.213379,298.210052 245.346008,301.203003 247.427032,304.170258 
	C248.059830,305.072510 249.305542,306.006226 250.334213,306.084045 
	C253.572495,306.329102 256.841034,306.174316 260.944244,306.174316 
	C257.087158,299.847290 253.699142,294.289795 250.325897,288.756470 
	C257.962097,283.725891 260.952759,275.792755 258.527069,267.910217 
	C256.201569,260.353271 250.115005,256.060730 241.579819,256.005798 
	C236.581573,255.973633 231.582947,255.998230 225.600525,255.997864 
M280.161194,286.878204 
	C283.760132,286.667145 287.362671,286.231262 290.957275,286.289124 
	C300.052856,286.435455 300.054901,286.524261 299.843445,277.179291 
	C299.837067,276.897003 299.583923,276.620239 299.239960,275.924438 
	C293.033234,275.924438 286.624420,275.924438 280.204529,275.924438 
	C280.204529,272.581421 280.204529,269.669067 280.204529,266.355286 
	C287.852203,266.355286 295.261963,266.355286 302.721375,266.355286 
	C302.721375,262.711609 302.721375,259.482635 302.721375,256.310730 
	C291.567047,256.310730 280.684448,256.310730 269.507416,256.310730 
	C269.507416,264.755676 269.507416,272.891571 269.507416,281.027435 
	C269.507416,289.307526 269.507416,297.587616 269.507416,305.830566 
	C281.284271,305.830566 292.495422,305.830566 303.633789,305.830566 
	C303.633789,302.383179 303.633789,299.292267 303.633789,295.732605 
	C295.628265,295.732605 287.889313,295.732605 279.968658,295.732605 
	C279.968658,292.763123 279.968658,290.276001 280.161194,286.878204 
M206.927139,272.097260 
	C208.920944,270.694244 210.914749,269.291199 212.829437,267.943848 
	C208.859589,257.918640 196.622726,253.868912 188.101089,255.513336 
	C175.947479,257.858612 168.724930,269.018372 168.103302,278.526459 
	C167.104370,293.804962 176.699387,304.278442 186.736801,306.450592 
	C198.129623,308.916016 207.709564,304.811951 213.061050,294.282684 
	C210.322495,292.654938 207.552872,291.008728 204.151306,288.986908 
	C203.410629,290.013031 202.837769,291.079712 202.017899,291.899323 
	C195.314163,298.600616 188.277802,298.217987 182.136490,290.872864 
	C176.745132,284.424683 178.056412,274.656708 185.164032,268.320374 
	C190.107040,263.913757 197.136612,265.310699 202.812500,271.593323 
	C203.509735,272.365082 205.198395,272.241150 206.927139,272.097260 
z"/>
<path fill="#F7F8F9" opacity="1.000000" stroke="none" 
	d="
M247.000732,104.626602 
	C280.678864,104.627777 313.857056,104.627777 347.777374,104.627777 
	C347.777374,106.262611 347.777252,108.029076 347.777374,109.795540 
	C347.779327,135.953842 347.751495,162.112213 347.806763,188.270416 
	C347.818787,193.956894 345.768341,198.346725 341.094879,201.753098 
	C326.719360,212.231155 312.686462,223.196960 298.054291,233.297958 
	C290.583801,238.455048 287.391541,240.918457 276.907837,232.891891 
	C263.040405,222.274704 248.733810,212.230362 234.593506,201.970779 
	C230.602325,199.074966 228.135529,195.170425 228.112518,190.325195 
	C227.980438,162.501373 228.042587,134.676620 228.059784,106.852180 
	C228.060272,106.068054 228.295563,105.284073 228.401245,104.625420 
	C234.639618,104.625420 240.570221,104.625420 247.000732,104.626602 
M256.845276,150.450073 
	C262.966949,138.853210 272.618561,133.173462 285.697510,133.181961 
	C300.522827,133.191605 315.348175,133.173004 330.173431,133.141632 
	C331.424957,133.138977 332.676086,132.946793 333.764221,132.856247 
	C333.764221,128.045135 333.764221,123.626450 333.764221,119.323807 
	C302.940186,119.323807 272.399872,119.323807 241.777451,119.323807 
	C241.777451,141.166183 241.857712,162.654755 241.696762,184.141525 
	C241.670593,187.635574 242.549393,190.249176 245.329132,192.272842 
	C258.401215,201.789444 271.453186,211.333710 284.548370,220.818390 
	C286.743835,222.408539 288.703674,222.408157 291.192993,220.536392 
	C302.643738,211.926392 313.884277,202.909241 326.054352,195.427551 
	C334.417480,190.286224 335.036194,183.855743 333.575287,175.619949 
	C326.814972,175.619949 320.156189,175.444763 313.510376,175.663544 
	C304.875824,175.947784 299.150940,182.025528 299.054779,190.651733 
	C299.017303,194.012405 299.048645,197.373840 299.048645,200.156601 
	C284.412628,200.707489 270.686859,201.170898 261.188812,189.006500 
	C252.125854,177.399353 251.119476,164.617188 256.845276,150.450073 
M308.074524,161.976959 
	C316.663605,161.976959 325.252686,161.976959 333.806885,161.976959 
	C333.806885,156.905182 333.806885,152.475555 333.806885,147.747849 
	C316.956207,147.747849 300.342438,147.511230 283.739960,147.841583 
	C274.603943,148.023361 265.800323,157.856567 266.450623,166.904938 
	C267.112915,176.119339 273.336334,185.267761 284.995392,185.537537 
	C289.228943,171.732773 294.254669,166.449478 308.074524,161.976959 
z"/>
<path fill="#F4F6F8" opacity="1.000000" stroke="none" 
	d="
M369.532654,265.514465 
	C378.955750,251.485153 400.908203,251.609970 410.312897,265.882446 
	C420.148041,280.808167 413.195557,302.089813 396.206024,306.454681 
	C380.985748,310.365021 365.364960,298.964813 365.043213,283.237427 
	C364.915741,277.006256 365.559662,271.040649 369.532654,265.514465 
M375.665375,279.747742 
	C375.655914,287.429993 379.306671,293.620178 385.099121,295.743561 
	C391.859802,298.221863 399.394257,294.746429 402.548889,287.694641 
	C405.745514,280.548920 403.060883,271.548370 396.633179,267.861603 
	C387.503540,262.625061 378.842712,267.182678 375.665375,279.747742 
z"/>
<path fill="#F5F7F8" opacity="1.000000" stroke="none" 
	d="
M313.272919,300.730530 
	C313.272552,285.674652 313.272552,271.089355 313.272552,255.602142 
	C322.378448,256.038086 331.196228,255.697906 339.738739,257.070831 
	C349.442413,258.630402 356.183563,268.376678 356.487366,278.299194 
	C356.745880,286.742737 355.908478,294.820282 348.474121,300.046509 
	C344.564148,302.795135 339.864960,305.302246 335.245056,305.953918 
	C328.254700,306.939972 321.022461,306.211395 313.506775,306.211395 
	C313.420593,304.362152 313.346954,302.781677 313.272919,300.730530 
M344.019745,289.216339 
	C346.967224,283.483765 347.136749,277.750671 343.495972,272.311218 
	C338.713379,265.165802 331.478638,266.007416 324.115601,266.637268 
	C324.115601,276.369812 324.115601,285.905518 324.115601,295.620422 
	C331.554932,296.223236 338.597656,296.565887 344.019745,289.216339 
z"/>
<path fill="#F9FBFC" opacity="1.000000" stroke="none" 
	d="
M226.092514,255.997589 
	C231.582947,255.998230 236.581573,255.973633 241.579819,256.005798 
	C250.115005,256.060730 256.201569,260.353271 258.527069,267.910217 
	C260.952759,275.792755 257.962097,283.725891 250.325897,288.756470 
	C253.699142,294.289795 257.087158,299.847290 260.944244,306.174316 
	C256.841034,306.174316 253.572495,306.329102 250.334213,306.084045 
	C249.305542,306.006226 248.059830,305.072510 247.427032,304.170258 
	C245.346008,301.203003 243.213379,298.210052 241.637833,294.966034 
	C239.700455,290.977081 237.177292,288.968536 231.998672,290.952118 
	C231.998672,295.543579 231.998672,300.558838 231.998672,305.878662 
	C228.438461,305.878662 225.025162,305.878662 221.241226,305.878662 
	C221.241226,289.538269 221.241226,272.997589 221.241226,255.997864 
	C222.692795,255.997864 224.146667,255.997864 226.092514,255.997589 
M240.157135,266.308777 
	C230.764725,266.345428 230.596527,266.512848 231.286621,276.073486 
	C231.389816,277.503052 231.738174,278.914948 232.018585,280.609833 
	C235.360458,280.609833 238.531921,280.910339 241.621902,280.536774 
	C245.861252,280.024292 248.973007,277.339569 248.688065,273.062439 
	C248.417725,269.004486 245.668533,266.185028 240.157135,266.308777 
z"/>
<path fill="#FAFCFD" opacity="1.000000" stroke="none" 
	d="
M280.064941,287.333557 
	C279.968658,290.276001 279.968658,292.763123 279.968658,295.732605 
	C287.889313,295.732605 295.628265,295.732605 303.633789,295.732605 
	C303.633789,299.292267 303.633789,302.383179 303.633789,305.830566 
	C292.495422,305.830566 281.284271,305.830566 269.507416,305.830566 
	C269.507416,297.587616 269.507416,289.307526 269.507416,281.027435 
	C269.507416,272.891571 269.507416,264.755676 269.507416,256.310730 
	C280.684448,256.310730 291.567047,256.310730 302.721375,256.310730 
	C302.721375,259.482635 302.721375,262.711609 302.721375,266.355286 
	C295.261963,266.355286 287.852203,266.355286 280.204529,266.355286 
	C280.204529,269.669067 280.204529,272.581421 280.204529,275.924438 
	C286.624420,275.924438 293.033234,275.924438 299.239960,275.924438 
	C299.583923,276.620239 299.837067,276.897003 299.843445,277.179291 
	C300.054901,286.524261 300.052856,286.435455 290.957275,286.289124 
	C287.362671,286.231262 283.760132,286.667145 280.064941,287.333557 
z"/>
<path fill="#F3F6F7" opacity="1.000000" stroke="none" 
	d="
M206.677368,272.314758 
	C205.198395,272.241150 203.509735,272.365082 202.812500,271.593323 
	C197.136612,265.310699 190.107040,263.913757 185.164032,268.320374 
	C178.056412,274.656708 176.745132,284.424683 182.136490,290.872864 
	C188.277802,298.217987 195.314163,298.600616 202.017899,291.899323 
	C202.837769,291.079712 203.410629,290.013031 204.151306,288.986908 
	C207.552872,291.008728 210.322495,292.654938 213.061050,294.282684 
	C207.709564,304.811951 198.129623,308.916016 186.736801,306.450592 
	C176.699387,304.278442 167.104370,293.804962 168.103302,278.526459 
	C168.724930,269.018372 175.947479,257.858612 188.101089,255.513336 
	C196.622726,253.868912 208.859589,257.918640 212.829437,267.943848 
	C210.914749,269.291199 208.920944,270.694244 206.677368,272.314758 
z"/>
<path fill="#020304" opacity="1.000000" stroke="none" 
	d="
M256.704590,150.795837 
	C251.119476,164.617188 252.125854,177.399353 261.188812,189.006500 
	C270.686859,201.170898 284.412628,200.707489 299.048645,200.156601 
	C299.048645,197.373840 299.017303,194.012405 299.054779,190.651733 
	C299.150940,182.025528 304.875824,175.947784 313.510376,175.663544 
	C320.156189,175.444763 326.814972,175.619949 333.575287,175.619949 
	C335.036194,183.855743 334.417480,190.286224 326.054352,195.427551 
	C313.884277,202.909241 302.643738,211.926392 291.192993,220.536392 
	C288.703674,222.408157 286.743835,222.408539 284.548370,220.818390 
	C271.453186,211.333710 258.401215,201.789444 245.329132,192.272842 
	C242.549393,190.249176 241.670593,187.635574 241.696762,184.141525 
	C241.857712,162.654755 241.777451,141.166183 241.777451,119.323807 
	C272.399872,119.323807 302.940186,119.323807 333.764221,119.323807 
	C333.764221,123.626450 333.764221,128.045135 333.764221,132.856247 
	C332.676086,132.946793 331.424957,133.138977 330.173431,133.141632 
	C315.348175,133.173004 300.522827,133.191605 285.697510,133.181961 
	C272.618561,133.173462 262.966949,138.853210 256.704590,150.795837 
z"/>
<path fill="#020303" opacity="1.000000" stroke="none" 
	d="
M307.645630,162.077148 
	C294.254669,166.449478 289.228943,171.732773 284.995392,185.537537 
	C273.336334,185.267761 267.112915,176.119339 266.450623,166.904938 
	C265.800323,157.856567 274.603943,148.023361 283.739960,147.841583 
	C300.342438,147.511230 316.956207,147.747849 333.806885,147.747849 
	C333.806885,152.475555 333.806885,156.905182 333.806885,161.976959 
	C325.252686,161.976959 316.663605,161.976959 307.645630,162.077148 
z"/>
<path fill="#040406" opacity="1.000000" stroke="none" 
	d="
M375.681396,279.313202 
	C378.842712,267.182678 387.503540,262.625061 396.633179,267.861603 
	C403.060883,271.548370 405.745514,280.548920 402.548889,287.694641 
	C399.394257,294.746429 391.859802,298.221863 385.099121,295.743561 
	C379.306671,293.620178 375.655914,287.429993 375.681396,279.313202 
z"/>
<path fill="#040506" opacity="1.000000" stroke="none" 
	d="
M343.799683,289.529205 
	C338.597656,296.565887 331.554932,296.223236 324.115601,295.620422 
	C324.115601,285.905518 324.115601,276.369812 324.115601,266.637268 
	C331.478638,266.007416 338.713379,265.165802 343.495972,272.311218 
	C347.136749,277.750671 346.967224,283.483765 343.799683,289.529205 
z"/>
<path fill="#0F1215" opacity="1.000000" stroke="none" 
	d="
M240.588028,266.302795 
	C245.668533,266.185028 248.417725,269.004486 248.688065,273.062439 
	C248.973007,277.339569 245.861252,280.024292 241.621902,280.536774 
	C238.531921,280.910339 235.360458,280.609833 232.018585,280.609833 
	C231.738174,278.914948 231.389816,277.503052 231.286621,276.073486 
	C230.596527,266.512848 230.764725,266.345428 240.588028,266.302795 
z"/>
</svg>